<svg xmlns="http://www.w3.org/2000/svg" viewBox="0 0 430 430" width="1em" height="1em" fill="#DD4462">
  <path d="M254,93C254.648,93 255.295,93.004 255.941,93.011L255.941,93L287.971,93L287.971,194.912L255.941,194.912L255.941,194.941C255.296,194.922 254.649,194.912 254,194.912C219.157,194.912 190.912,223.157 190.912,258C190.912,292.843 219.157,321.088 254,321.088C288.843,321.088 317.088,292.843 317.088,258L317.088,194.912C317.088,138.627 362.716,93 419,93L419,258C419,349.127 345.127,423 254,423C162.873,423 89,349.127 89,258C89,166.873 162.873,93 254,93Z" style="fill:rgb(73,84,100);" />
</svg>